<mxfile host="app.diagrams.net" modified="2022-05-16T05:06:17.949Z" agent="5.0 (Windows NT 10.0; Win64; x64) AppleWebKit/537.36 (KHTML, like Gecko) Chrome/101.0.4951.54 Safari/537.36" etag="oJeDv-Le21Gbv4-_bOiv" version="18.0.3" type="github">
  <diagram id="_3HtI_OE_CnLbjIIxL0U" name="第 1 页">
    <mxGraphModel dx="2249" dy="762" grid="1" gridSize="10" guides="1" tooltips="1" connect="1" arrows="1" fold="1" page="1" pageScale="1" pageWidth="827" pageHeight="1169" math="0" shadow="0">
      <root>
        <mxCell id="0" />
        <mxCell id="1" parent="0" />
        <mxCell id="WfKt7YNtduD_fY_sLWLm-5" value="" style="edgeStyle=orthogonalEdgeStyle;rounded=0;orthogonalLoop=1;jettySize=auto;html=1;" edge="1" parent="1" target="WfKt7YNtduD_fY_sLWLm-4">
          <mxGeometry relative="1" as="geometry">
            <mxPoint x="270" y="350" as="sourcePoint" />
          </mxGeometry>
        </mxCell>
        <mxCell id="WfKt7YNtduD_fY_sLWLm-7" value="" style="edgeStyle=orthogonalEdgeStyle;rounded=0;orthogonalLoop=1;jettySize=auto;html=1;" edge="1" parent="1" source="WfKt7YNtduD_fY_sLWLm-4" target="WfKt7YNtduD_fY_sLWLm-6">
          <mxGeometry relative="1" as="geometry" />
        </mxCell>
        <mxCell id="WfKt7YNtduD_fY_sLWLm-4" value="代打包包裹" style="whiteSpace=wrap;html=1;rounded=0;" vertex="1" parent="1">
          <mxGeometry x="350" y="320" width="120" height="60" as="geometry" />
        </mxCell>
        <mxCell id="WfKt7YNtduD_fY_sLWLm-6" value="代打包订单" style="whiteSpace=wrap;html=1;rounded=0;" vertex="1" parent="1">
          <mxGeometry x="550" y="320" width="120" height="60" as="geometry" />
        </mxCell>
        <mxCell id="WfKt7YNtduD_fY_sLWLm-9" value="货代服务商" style="rounded=0;whiteSpace=wrap;html=1;" vertex="1" parent="1">
          <mxGeometry x="150" y="320" width="120" height="60" as="geometry" />
        </mxCell>
        <mxCell id="WfKt7YNtduD_fY_sLWLm-11" value="" style="edgeStyle=orthogonalEdgeStyle;rounded=0;orthogonalLoop=1;jettySize=auto;html=1;" edge="1" parent="1" source="WfKt7YNtduD_fY_sLWLm-10" target="WfKt7YNtduD_fY_sLWLm-9">
          <mxGeometry relative="1" as="geometry" />
        </mxCell>
        <mxCell id="WfKt7YNtduD_fY_sLWLm-10" value="用户" style="rounded=1;whiteSpace=wrap;html=1;" vertex="1" parent="1">
          <mxGeometry x="-50" y="320" width="120" height="60" as="geometry" />
        </mxCell>
        <mxCell id="WfKt7YNtduD_fY_sLWLm-14" value="" style="edgeStyle=orthogonalEdgeStyle;rounded=0;orthogonalLoop=1;jettySize=auto;html=1;" edge="1" parent="1" source="WfKt7YNtduD_fY_sLWLm-13" target="WfKt7YNtduD_fY_sLWLm-9">
          <mxGeometry relative="1" as="geometry" />
        </mxCell>
        <mxCell id="WfKt7YNtduD_fY_sLWLm-13" value="仓库" style="rounded=0;whiteSpace=wrap;html=1;" vertex="1" parent="1">
          <mxGeometry x="150" y="170" width="120" height="60" as="geometry" />
        </mxCell>
      </root>
    </mxGraphModel>
  </diagram>
</mxfile>
